<svg xmlns="http://www.w3.org/2000/svg" width="1200" height="770" viewBox="0 0 1200 770" role="img" aria-labelledby="title desc"><title id="title">Muse recall freshness ablation</title><desc id="desc">Paired raw-retrieval and Muse-freshness pass counts for four local embedding models across three synthetic categories. Longer bars mean a higher within-row pass fraction.</desc><style>text{font-family:Inter,ui-sans-serif,system-ui,-apple-system,sans-serif;fill:#172033}.title{font-size:25px;font-weight:700}.subtitle{font-size:13px;fill:#536075}.label{font-size:12px;font-weight:650}.category{font-size:12px;fill:#536075}.value{font-size:10px;fill:#475569}.blue{fill:#1d4ed8}.footer{font-size:12px;font-weight:650}</style><rect width="1200" height="770" fill="#ffffff"/><text x="40" y="40" class="title">Recall freshness ablation · UNCHANGED</text><text x="40" y="67" class="subtitle">local-live retrieval component · 60 synthetic cases · four models × two trials · no generative requests</text><text x="360" y="99" class="subtitle">Legend</text><rect x="430" y="90" width="14" height="10" rx="2" fill="#94a3b8"/><text x="452" y="99" class="subtitle">raw-retrieval</text><rect x="570" y="90" width="14" height="10" rx="2" fill="#2563eb"/><text x="592" y="99" class="subtitle">muse-freshness</text><text x="40" y="128" class="subtitle">Model</text><text x="280" y="128" class="subtitle">Category</text><text x="40" y="171" class="label">nomic-embed-text</text><text x="280" y="171" class="category">ordinary-positive</text><rect x="430" y="155" width="238" height="12" rx="3" fill="#94a3b8"/><rect x="430" y="172" width="238" height="12" rx="3" fill="#2563eb"/><text x="678" y="165" class="value">raw 17/20</text><text x="678" y="183" class="value blue">Muse 17/20</text><text x="40" y="213" class="label">nomic-embed-text</text><text x="280" y="213" class="category">absent</text><rect x="430" y="197" width="126" height="12" rx="3" fill="#94a3b8"/><rect x="430" y="214" width="126" height="12" rx="3" fill="#2563eb"/><text x="566" y="207" class="value">raw 9/20</text><text x="566" y="225" class="value blue">Muse 9/20</text><text x="40" y="255" class="label">nomic-embed-text</text><text x="280" y="255" class="category">correction-pair</text><rect x="430" y="239" width="14" height="12" rx="3" fill="#94a3b8"/><rect x="430" y="256" width="14" height="12" rx="3" fill="#2563eb"/><text x="454" y="249" class="value">raw 1/20</text><text x="454" y="267" class="value blue">Muse 1/20</text><text x="40" y="297" class="label">nomic-embed-text-v2-moe</text><text x="280" y="297" class="category">ordinary-positive</text><rect x="430" y="281" width="280" height="12" rx="3" fill="#94a3b8"/><rect x="430" y="298" width="280" height="12" rx="3" fill="#2563eb"/><text x="720" y="291" class="value">raw 20/20</text><text x="720" y="309" class="value blue">Muse 20/20</text><text x="40" y="339" class="label">nomic-embed-text-v2-moe</text><text x="280" y="339" class="category">absent</text><rect x="430" y="323" width="280" height="12" rx="3" fill="#94a3b8"/><rect x="430" y="340" width="280" height="12" rx="3" fill="#2563eb"/><text x="720" y="333" class="value">raw 20/20</text><text x="720" y="351" class="value blue">Muse 20/20</text><text x="40" y="381" class="label">nomic-embed-text-v2-moe</text><text x="280" y="381" class="category">correction-pair</text><rect x="430" y="365" width="56" height="12" rx="3" fill="#94a3b8"/><rect x="430" y="382" width="56" height="12" rx="3" fill="#2563eb"/><text x="496" y="375" class="value">raw 4/20</text><text x="496" y="393" class="value blue">Muse 4/20</text><text x="40" y="423" class="label">embeddinggemma</text><text x="280" y="423" class="category">ordinary-positive</text><rect x="430" y="407" width="280" height="12" rx="3" fill="#94a3b8"/><rect x="430" y="424" width="280" height="12" rx="3" fill="#2563eb"/><text x="720" y="417" class="value">raw 20/20</text><text x="720" y="435" class="value blue">Muse 20/20</text><text x="40" y="465" class="label">embeddinggemma</text><text x="280" y="465" class="category">absent</text><rect x="430" y="449" width="252" height="12" rx="3" fill="#94a3b8"/><rect x="430" y="466" width="252" height="12" rx="3" fill="#2563eb"/><text x="692" y="459" class="value">raw 18/20</text><text x="692" y="477" class="value blue">Muse 18/20</text><text x="40" y="507" class="label">embeddinggemma</text><text x="280" y="507" class="category">correction-pair</text><rect x="430" y="491" width="14" height="12" rx="3" fill="#94a3b8"/><rect x="430" y="508" width="14" height="12" rx="3" fill="#2563eb"/><text x="454" y="501" class="value">raw 1/20</text><text x="454" y="519" class="value blue">Muse 1/20</text><text x="40" y="549" class="label">qwen3-embedding:0.6b</text><text x="280" y="549" class="category">ordinary-positive</text><rect x="430" y="533" width="280" height="12" rx="3" fill="#94a3b8"/><rect x="430" y="550" width="280" height="12" rx="3" fill="#2563eb"/><text x="720" y="543" class="value">raw 20/20</text><text x="720" y="561" class="value blue">Muse 20/20</text><text x="40" y="591" class="label">qwen3-embedding:0.6b</text><text x="280" y="591" class="category">absent</text><rect x="430" y="575" width="252" height="12" rx="3" fill="#94a3b8"/><rect x="430" y="592" width="252" height="12" rx="3" fill="#2563eb"/><text x="692" y="585" class="value">raw 18/20</text><text x="692" y="603" class="value blue">Muse 18/20</text><text x="40" y="633" class="label">qwen3-embedding:0.6b</text><text x="280" y="633" class="category">correction-pair</text><rect x="430" y="617" width="14" height="12" rx="3" fill="#94a3b8"/><rect x="430" y="634" width="14" height="12" rx="3" fill="#2563eb"/><text x="454" y="627" class="value">raw 1/20</text><text x="454" y="645" class="value blue">Muse 1/20</text><line x1="40" y1="690" x2="1160" y2="690" stroke="#dce2ea"/><text x="40" y="718" class="footer">organic personal effectiveness = NOT_PROVEN · agent capability = NOT_RUN · generated cases are not independent truths</text></svg>
