<svg xmlns="http://www.w3.org/2000/svg" width="1000" height="600" viewBox="0 0 1000 600" role="img" aria-labelledby="title desc"><title id="title">Recall production-path evaluation</title><desc id="desc">Ordinary correctness and confidence, absent abstention, correction pair retention, and current top-one results for four local embedders through the production prepareGroundedRecall seam.</desc><style>text{font-family:Inter,ui-sans-serif,system-ui,sans-serif;fill:#172033}.title{font-size:25px;font-weight:760}.sub{font-size:12px;fill:#536075}.model{font-size:13px;font-weight:650}.value{font-size:10px}.b0{fill:#2563eb}.b1{fill:#0891b2}.b2{fill:#d97706}.b3{fill:#7c3aed}</style><rect width="1000" height="600" fill="#fff"/><text x="35" y="42" class="title">Recall production-path · COMPLETE</text><text x="35" y="68" class="sub">topK 3 · refineChunks true · frozen synthetic v1 · four models × pass² · generative requests 0</text><text x="310" y="96" class="sub">blue ordinary · cyan absent · amber pair retained · purple current top-1</text><text x="35" y="135" class="model">nomic-embed-text</text><rect x="310" y="121" width="425" height="12" rx="3" class="b0"/><text x="745" y="131" class="value">17/20</text><rect x="310" y="139" width="250" height="12" rx="3" class="b1"/><text x="570" y="149" class="value">10/20</text><rect x="310" y="157" width="0" height="12" rx="3" class="b2"/><text x="320" y="167" class="value">0/20</text><rect x="310" y="175" width="0" height="12" rx="3" class="b3"/><text x="320" y="185" class="value">0/20</text><text x="35" y="235" class="model">nomic-embed-text-v2-moe</text><rect x="310" y="221" width="475" height="12" rx="3" class="b0"/><text x="795" y="231" class="value">19/20</text><rect x="310" y="239" width="500" height="12" rx="3" class="b1"/><text x="820" y="249" class="value">20/20</text><rect x="310" y="257" width="0" height="12" rx="3" class="b2"/><text x="320" y="267" class="value">0/20</text><rect x="310" y="275" width="0" height="12" rx="3" class="b3"/><text x="320" y="285" class="value">0/20</text><text x="35" y="335" class="model">embeddinggemma</text><rect x="310" y="321" width="450" height="12" rx="3" class="b0"/><text x="770" y="331" class="value">18/20</text><rect x="310" y="339" width="500" height="12" rx="3" class="b1"/><text x="820" y="349" class="value">20/20</text><rect x="310" y="357" width="25" height="12" rx="3" class="b2"/><text x="345" y="367" class="value">1/20</text><rect x="310" y="375" width="0" height="12" rx="3" class="b3"/><text x="320" y="385" class="value">0/20</text><text x="35" y="435" class="model">qwen3-embedding:0.6b</text><rect x="310" y="421" width="475" height="12" rx="3" class="b0"/><text x="795" y="431" class="value">19/20</text><rect x="310" y="439" width="500" height="12" rx="3" class="b1"/><text x="820" y="449" class="value">20/20</text><rect x="310" y="457" width="25" height="12" rx="3" class="b2"/><text x="345" y="467" class="value">1/20</text><rect x="310" y="475" width="0" height="12" rx="3" class="b3"/><text x="320" y="485" class="value">0/20</text><text x="35" y="560" class="sub">agent aggregate FAILED · organic effectiveness NOT_PROVEN · repeats collapsed</text></svg>
