<svg xmlns="http://www.w3.org/2000/svg" width="1200" height="780" viewBox="0 0 1200 780" role="img" aria-labelledby="title desc"><title id="title">Recall candidate-pool diagnostic</title><desc id="desc">Pair retention and correction-pass results for four local embedding models at top K four, eight, and twelve. A correction pass requires pair retention and current top-1.</desc><style>text{font-family:Inter,ui-sans-serif,system-ui,-apple-system,sans-serif;fill:#172033}.title{font-size:27px;font-weight:760}.sub{font-size:13px;fill:#536075}.model{font-size:12px;font-weight:650}.k{font-size:12px;fill:#536075}.value{font-size:10px}.footer{font-size:12px;font-weight:650}</style><rect width="1200" height="780" fill="#fff"/><text x="40" y="42" class="title">Recall candidate-pool diagnostic · COMPLETE</text><text x="40" y="70" class="sub">local-live retrieval component · correction 20 · topK 4/8/12 · four models × two reliable trials · generative requests 0</text><rect x="350" y="91" width="14" height="9" fill="#0891b2"/><text x="372" y="100" class="sub">pair retained</text><rect x="480" y="91" width="14" height="9" fill="#94a3b8"/><text x="502" y="100" class="sub">raw correction pass</text><rect x="650" y="91" width="14" height="9" fill="#2563eb"/><text x="672" y="100" class="sub">Muse correction pass</text><text x="40" y="165" class="model">nomic-embed-text</text><text x="285" y="165" class="k">K=4</text><rect x="350" y="150" width="13" height="9" rx="3" fill="#0891b2"/><rect x="350" y="162" width="13" height="9" rx="3" fill="#94a3b8"/><rect x="350" y="174" width="13" height="9" rx="3" fill="#2563eb"/><text x="373" y="158" class="value">pair 1/20</text><text x="373" y="170" class="value">raw pass 1/20</text><text x="373" y="182" class="value">Muse pass 1/20</text><text x="40" y="208" class="model">nomic-embed-text</text><text x="285" y="208" class="k">K=8</text><rect x="350" y="193" width="104" height="9" rx="3" fill="#0891b2"/><rect x="350" y="205" width="78" height="9" rx="3" fill="#94a3b8"/><rect x="350" y="217" width="78" height="9" rx="3" fill="#2563eb"/><text x="464" y="201" class="value">pair 8/20</text><text x="438" y="213" class="value">raw pass 6/20</text><text x="438" y="225" class="value">Muse pass 6/20</text><text x="40" y="251" class="model">nomic-embed-text</text><text x="285" y="251" class="k">K=12</text><rect x="350" y="236" width="143" height="9" rx="3" fill="#0891b2"/><rect x="350" y="248" width="91" height="9" rx="3" fill="#94a3b8"/><rect x="350" y="260" width="91" height="9" rx="3" fill="#2563eb"/><text x="503" y="244" class="value">pair 11/20</text><text x="451" y="256" class="value">raw pass 7/20</text><text x="451" y="268" class="value">Muse pass 7/20</text><text x="40" y="294" class="model">nomic-embed-text-v2-moe</text><text x="285" y="294" class="k">K=4</text><rect x="350" y="279" width="65" height="9" rx="3" fill="#0891b2"/><rect x="350" y="291" width="52" height="9" rx="3" fill="#94a3b8"/><rect x="350" y="303" width="52" height="9" rx="3" fill="#2563eb"/><text x="425" y="287" class="value">pair 5/20</text><text x="412" y="299" class="value">raw pass 4/20</text><text x="412" y="311" class="value">Muse pass 4/20</text><text x="40" y="337" class="model">nomic-embed-text-v2-moe</text><text x="285" y="337" class="k">K=8</text><rect x="350" y="322" width="169" height="9" rx="3" fill="#0891b2"/><rect x="350" y="334" width="130" height="9" rx="3" fill="#94a3b8"/><rect x="350" y="346" width="130" height="9" rx="3" fill="#2563eb"/><text x="529" y="330" class="value">pair 13/20</text><text x="490" y="342" class="value">raw pass 10/20</text><text x="490" y="354" class="value">Muse pass 10/20</text><text x="40" y="380" class="model">nomic-embed-text-v2-moe</text><text x="285" y="380" class="k">K=12</text><rect x="350" y="365" width="221" height="9" rx="3" fill="#0891b2"/><rect x="350" y="377" width="169" height="9" rx="3" fill="#94a3b8"/><rect x="350" y="389" width="169" height="9" rx="3" fill="#2563eb"/><text x="581" y="373" class="value">pair 17/20</text><text x="529" y="385" class="value">raw pass 13/20</text><text x="529" y="397" class="value">Muse pass 13/20</text><text x="40" y="423" class="model">embeddinggemma</text><text x="285" y="423" class="k">K=4</text><rect x="350" y="408" width="13" height="9" rx="3" fill="#0891b2"/><rect x="350" y="420" width="13" height="9" rx="3" fill="#94a3b8"/><rect x="350" y="432" width="13" height="9" rx="3" fill="#2563eb"/><text x="373" y="416" class="value">pair 1/20</text><text x="373" y="428" class="value">raw pass 1/20</text><text x="373" y="440" class="value">Muse pass 1/20</text><text x="40" y="466" class="model">embeddinggemma</text><text x="285" y="466" class="k">K=8</text><rect x="350" y="451" width="78" height="9" rx="3" fill="#0891b2"/><rect x="350" y="463" width="65" height="9" rx="3" fill="#94a3b8"/><rect x="350" y="475" width="65" height="9" rx="3" fill="#2563eb"/><text x="438" y="459" class="value">pair 6/20</text><text x="425" y="471" class="value">raw pass 5/20</text><text x="425" y="483" class="value">Muse pass 5/20</text><text x="40" y="509" class="model">embeddinggemma</text><text x="285" y="509" class="k">K=12</text><rect x="350" y="494" width="169" height="9" rx="3" fill="#0891b2"/><rect x="350" y="506" width="130" height="9" rx="3" fill="#94a3b8"/><rect x="350" y="518" width="130" height="9" rx="3" fill="#2563eb"/><text x="529" y="502" class="value">pair 13/20</text><text x="490" y="514" class="value">raw pass 10/20</text><text x="490" y="526" class="value">Muse pass 10/20</text><text x="40" y="552" class="model">qwen3-embedding:0.6b</text><text x="285" y="552" class="k">K=4</text><rect x="350" y="537" width="13" height="9" rx="3" fill="#0891b2"/><rect x="350" y="549" width="13" height="9" rx="3" fill="#94a3b8"/><rect x="350" y="561" width="13" height="9" rx="3" fill="#2563eb"/><text x="373" y="545" class="value">pair 1/20</text><text x="373" y="557" class="value">raw pass 1/20</text><text x="373" y="569" class="value">Muse pass 1/20</text><text x="40" y="595" class="model">qwen3-embedding:0.6b</text><text x="285" y="595" class="k">K=8</text><rect x="350" y="580" width="65" height="9" rx="3" fill="#0891b2"/><rect x="350" y="592" width="65" height="9" rx="3" fill="#94a3b8"/><rect x="350" y="604" width="65" height="9" rx="3" fill="#2563eb"/><text x="425" y="588" class="value">pair 5/20</text><text x="425" y="600" class="value">raw pass 5/20</text><text x="425" y="612" class="value">Muse pass 5/20</text><text x="40" y="638" class="model">qwen3-embedding:0.6b</text><text x="285" y="638" class="k">K=12</text><rect x="350" y="623" width="156" height="9" rx="3" fill="#0891b2"/><rect x="350" y="635" width="130" height="9" rx="3" fill="#94a3b8"/><rect x="350" y="647" width="130" height="9" rx="3" fill="#2563eb"/><text x="516" y="631" class="value">pair 12/20</text><text x="490" y="643" class="value">raw pass 10/20</text><text x="490" y="655" class="value">Muse pass 10/20</text><line x1="40" y1="700" x2="1160" y2="700" stroke="#dce3ec"/><text x="40" y="728" class="footer">pass = pair retained + current top-1</text><text x="40" y="754" class="footer">diagnostic only · repeats collapsed · agent aggregate remains FAILED · organic effectiveness NOT_PROVEN</text></svg>
