<svg xmlns="http://www.w3.org/2000/svg" viewBox="0 0 13 11" width="128" height="108" shape-rendering="crispEdges" role="img" aria-label="Muse bluebird mascot">
<style>@keyframes mm_stand{0.00%{opacity:1}33.32%{opacity:1}33.33%{opacity:0}49.99%{opacity:0}50.00%{opacity:1}83.32%{opacity:1}83.33%{opacity:0}100.00%{opacity:0}}.mm_stand{animation:mm_stand 3s linear infinite}@keyframes mm_blink{0.00%{opacity:0}33.32%{opacity:0}33.33%{opacity:1}49.99%{opacity:1}50.00%{opacity:0}100.00%{opacity:0}}.mm_blink{animation:mm_blink 3s linear infinite}@keyframes mm_tilt{0.00%{opacity:0}83.32%{opacity:0}83.33%{opacity:1}99.99%{opacity:1}100.00%{opacity:1}}.mm_tilt{animation:mm_tilt 3s linear infinite}</style>
<g class="mm_stand"><rect x="4" y="0" width="1" height="1" fill="#8b9dff"/><rect x="5" y="0" width="1" height="1" fill="#8b9dff"/><rect x="6" y="0" width="1" height="1" fill="#8b9dff"/><rect x="7" y="0" width="1" height="1" fill="#8b9dff"/><rect x="3" y="1" width="1" height="1" fill="#8b9dff"/><rect x="4" y="1" width="1" height="1" fill="#8b9dff"/><rect x="5" y="1" width="1" height="1" fill="#8b9dff"/><rect x="6" y="1" width="1" height="1" fill="#8b9dff"/><rect x="7" y="1" width="1" height="1" fill="#8b9dff"/><rect x="8" y="1" width="1" height="1" fill="#8b9dff"/><rect x="2" y="2" width="1" height="1" fill="#8b9dff"/><rect x="3" y="2" width="1" height="1" fill="#8b9dff"/><rect x="4" y="2" width="1" height="1" fill="#8b9dff"/><rect x="5" y="2" width="1" height="1" fill="#8b9dff"/><rect x="6" y="2" width="1" height="1" fill="#8b9dff"/><rect x="7" y="2" width="1" height="1" fill="#8b9dff"/><rect x="8" y="2" width="1" height="1" fill="#8b9dff"/><rect x="9" y="2" width="1" height="1" fill="#8b9dff"/><rect x="2" y="3" width="1" height="1" fill="#8b9dff"/><rect x="3" y="3" width="1" height="1" fill="#8b9dff"/><rect x="4" y="3" width="1" height="1" fill="#8b9dff"/><rect x="5" y="3" width="1" height="1" fill="#8b9dff"/><rect x="6" y="3" width="1" height="1" fill="#8b9dff"/><rect x="7" y="3" width="1" height="1" fill="#8b9dff"/><rect x="8" y="3" width="1" height="1" fill="#8b9dff"/><rect x="9" y="3" width="1" height="1" fill="#8b9dff"/><rect x="1" y="4" width="1" height="1" fill="#6b78e8"/><rect x="2" y="4" width="1" height="1" fill="#8b9dff"/><rect x="3" y="4" width="1" height="1" fill="#8b9dff"/><rect x="4" y="4" width="1" height="1" fill="#8b9dff"/><rect x="5" y="4" width="1" height="1" fill="#8b9dff"/><rect x="6" y="4" width="1" height="1" fill="#8b9dff"/><rect x="7" y="4" width="1" height="1" fill="#8b9dff"/><rect x="8" y="4" width="1" height="1" fill="#1b1e2e"/><rect x="9" y="4" width="1" height="1" fill="#8b9dff"/><rect x="10" y="4" width="1" height="1" fill="#8b9dff"/><rect x="0" y="5" width="1" height="1" fill="#6b78e8"/><rect x="1" y="5" width="1" height="1" fill="#6b78e8"/><rect x="2" y="5" width="1" height="1" fill="#8b9dff"/><rect x="3" y="5" width="1" height="1" fill="#6b78e8"/><rect x="4" y="5" width="1" height="1" fill="#8b9dff"/><rect x="5" y="5" width="1" height="1" fill="#8b9dff"/><rect x="6" y="5" width="1" height="1" fill="#8b9dff"/><rect x="7" y="5" width="1" height="1" fill="#8b9dff"/><rect x="8" y="5" width="1" height="1" fill="#8b9dff"/><rect x="9" y="5" width="1" height="1" fill="#8b9dff"/><rect x="10" y="5" width="1" height="1" fill="#f2c14e"/><rect x="2" y="6" width="1" height="1" fill="#8b9dff"/><rect x="3" y="6" width="1" height="1" fill="#6b78e8"/><rect x="4" y="6" width="1" height="1" fill="#6b78e8"/><rect x="5" y="6" width="1" height="1" fill="#8b9dff"/><rect x="6" y="6" width="1" height="1" fill="#8b9dff"/><rect x="7" y="6" width="1" height="1" fill="#8b9dff"/><rect x="8" y="6" width="1" height="1" fill="#e79ab0"/><rect x="9" y="6" width="1" height="1" fill="#8b9dff"/><rect x="2" y="7" width="1" height="1" fill="#8b9dff"/><rect x="3" y="7" width="1" height="1" fill="#8b9dff"/><rect x="4" y="7" width="1" height="1" fill="#6b78e8"/><rect x="5" y="7" width="1" height="1" fill="#f4f1ea"/><rect x="6" y="7" width="1" height="1" fill="#f4f1ea"/><rect x="7" y="7" width="1" height="1" fill="#f4f1ea"/><rect x="8" y="7" width="1" height="1" fill="#8b9dff"/><rect x="9" y="7" width="1" height="1" fill="#8b9dff"/><rect x="3" y="8" width="1" height="1" fill="#8b9dff"/><rect x="4" y="8" width="1" height="1" fill="#8b9dff"/><rect x="5" y="8" width="1" height="1" fill="#f4f1ea"/><rect x="6" y="8" width="1" height="1" fill="#f4f1ea"/><rect x="7" y="8" width="1" height="1" fill="#f4f1ea"/><rect x="8" y="8" width="1" height="1" fill="#8b9dff"/><rect x="5" y="10" width="1" height="1" fill="#b7a98f"/><rect x="7" y="10" width="1" height="1" fill="#b7a98f"/></g><g class="mm_blink"><rect x="4" y="0" width="1" height="1" fill="#8b9dff"/><rect x="5" y="0" width="1" height="1" fill="#8b9dff"/><rect x="6" y="0" width="1" height="1" fill="#8b9dff"/><rect x="7" y="0" width="1" height="1" fill="#8b9dff"/><rect x="3" y="1" width="1" height="1" fill="#8b9dff"/><rect x="4" y="1" width="1" height="1" fill="#8b9dff"/><rect x="5" y="1" width="1" height="1" fill="#8b9dff"/><rect x="6" y="1" width="1" height="1" fill="#8b9dff"/><rect x="7" y="1" width="1" height="1" fill="#8b9dff"/><rect x="8" y="1" width="1" height="1" fill="#8b9dff"/><rect x="2" y="2" width="1" height="1" fill="#8b9dff"/><rect x="3" y="2" width="1" height="1" fill="#8b9dff"/><rect x="4" y="2" width="1" height="1" fill="#8b9dff"/><rect x="5" y="2" width="1" height="1" fill="#8b9dff"/><rect x="6" y="2" width="1" height="1" fill="#8b9dff"/><rect x="7" y="2" width="1" height="1" fill="#8b9dff"/><rect x="8" y="2" width="1" height="1" fill="#8b9dff"/><rect x="9" y="2" width="1" height="1" fill="#8b9dff"/><rect x="2" y="3" width="1" height="1" fill="#8b9dff"/><rect x="3" y="3" width="1" height="1" fill="#8b9dff"/><rect x="4" y="3" width="1" height="1" fill="#8b9dff"/><rect x="5" y="3" width="1" height="1" fill="#8b9dff"/><rect x="6" y="3" width="1" height="1" fill="#8b9dff"/><rect x="7" y="3" width="1" height="1" fill="#8b9dff"/><rect x="8" y="3" width="1" height="1" fill="#8b9dff"/><rect x="9" y="3" width="1" height="1" fill="#8b9dff"/><rect x="1" y="4" width="1" height="1" fill="#6b78e8"/><rect x="2" y="4" width="1" height="1" fill="#8b9dff"/><rect x="3" y="4" width="1" height="1" fill="#8b9dff"/><rect x="4" y="4" width="1" height="1" fill="#8b9dff"/><rect x="5" y="4" width="1" height="1" fill="#8b9dff"/><rect x="6" y="4" width="1" height="1" fill="#8b9dff"/><rect x="7" y="4" width="1" height="1" fill="#1b1e2e"/><rect x="8" y="4" width="1" height="1" fill="#1b1e2e"/><rect x="9" y="4" width="1" height="1" fill="#8b9dff"/><rect x="10" y="4" width="1" height="1" fill="#8b9dff"/><rect x="0" y="5" width="1" height="1" fill="#6b78e8"/><rect x="1" y="5" width="1" height="1" fill="#6b78e8"/><rect x="2" y="5" width="1" height="1" fill="#8b9dff"/><rect x="3" y="5" width="1" height="1" fill="#6b78e8"/><rect x="4" y="5" width="1" height="1" fill="#8b9dff"/><rect x="5" y="5" width="1" height="1" fill="#8b9dff"/><rect x="6" y="5" width="1" height="1" fill="#8b9dff"/><rect x="7" y="5" width="1" height="1" fill="#8b9dff"/><rect x="8" y="5" width="1" height="1" fill="#8b9dff"/><rect x="9" y="5" width="1" height="1" fill="#8b9dff"/><rect x="10" y="5" width="1" height="1" fill="#f2c14e"/><rect x="2" y="6" width="1" height="1" fill="#8b9dff"/><rect x="3" y="6" width="1" height="1" fill="#6b78e8"/><rect x="4" y="6" width="1" height="1" fill="#6b78e8"/><rect x="5" y="6" width="1" height="1" fill="#8b9dff"/><rect x="6" y="6" width="1" height="1" fill="#8b9dff"/><rect x="7" y="6" width="1" height="1" fill="#8b9dff"/><rect x="8" y="6" width="1" height="1" fill="#e79ab0"/><rect x="9" y="6" width="1" height="1" fill="#8b9dff"/><rect x="2" y="7" width="1" height="1" fill="#8b9dff"/><rect x="3" y="7" width="1" height="1" fill="#8b9dff"/><rect x="4" y="7" width="1" height="1" fill="#6b78e8"/><rect x="5" y="7" width="1" height="1" fill="#f4f1ea"/><rect x="6" y="7" width="1" height="1" fill="#f4f1ea"/><rect x="7" y="7" width="1" height="1" fill="#f4f1ea"/><rect x="8" y="7" width="1" height="1" fill="#8b9dff"/><rect x="9" y="7" width="1" height="1" fill="#8b9dff"/><rect x="3" y="8" width="1" height="1" fill="#8b9dff"/><rect x="4" y="8" width="1" height="1" fill="#8b9dff"/><rect x="5" y="8" width="1" height="1" fill="#f4f1ea"/><rect x="6" y="8" width="1" height="1" fill="#f4f1ea"/><rect x="7" y="8" width="1" height="1" fill="#f4f1ea"/><rect x="8" y="8" width="1" height="1" fill="#8b9dff"/><rect x="5" y="10" width="1" height="1" fill="#b7a98f"/><rect x="7" y="10" width="1" height="1" fill="#b7a98f"/></g><g class="mm_tilt"><rect x="4" y="0" width="1" height="1" fill="#8b9dff"/><rect x="5" y="0" width="1" height="1" fill="#8b9dff"/><rect x="6" y="0" width="1" height="1" fill="#8b9dff"/><rect x="7" y="0" width="1" height="1" fill="#8b9dff"/><rect x="3" y="1" width="1" height="1" fill="#8b9dff"/><rect x="4" y="1" width="1" height="1" fill="#8b9dff"/><rect x="5" y="1" width="1" height="1" fill="#8b9dff"/><rect x="6" y="1" width="1" height="1" fill="#8b9dff"/><rect x="7" y="1" width="1" height="1" fill="#8b9dff"/><rect x="8" y="1" width="1" height="1" fill="#8b9dff"/><rect x="2" y="2" width="1" height="1" fill="#8b9dff"/><rect x="3" y="2" width="1" height="1" fill="#8b9dff"/><rect x="4" y="2" width="1" height="1" fill="#8b9dff"/><rect x="5" y="2" width="1" height="1" fill="#8b9dff"/><rect x="6" y="2" width="1" height="1" fill="#8b9dff"/><rect x="7" y="2" width="1" height="1" fill="#8b9dff"/><rect x="8" y="2" width="1" height="1" fill="#8b9dff"/><rect x="9" y="2" width="1" height="1" fill="#8b9dff"/><rect x="2" y="3" width="1" height="1" fill="#8b9dff"/><rect x="3" y="3" width="1" height="1" fill="#8b9dff"/><rect x="4" y="3" width="1" height="1" fill="#8b9dff"/><rect x="5" y="3" width="1" height="1" fill="#8b9dff"/><rect x="6" y="3" width="1" height="1" fill="#8b9dff"/><rect x="7" y="3" width="1" height="1" fill="#8b9dff"/><rect x="8" y="3" width="1" height="1" fill="#8b9dff"/><rect x="9" y="3" width="1" height="1" fill="#8b9dff"/><rect x="1" y="4" width="1" height="1" fill="#6b78e8"/><rect x="2" y="4" width="1" height="1" fill="#8b9dff"/><rect x="3" y="4" width="1" height="1" fill="#8b9dff"/><rect x="4" y="4" width="1" height="1" fill="#8b9dff"/><rect x="5" y="4" width="1" height="1" fill="#8b9dff"/><rect x="6" y="4" width="1" height="1" fill="#8b9dff"/><rect x="7" y="4" width="1" height="1" fill="#8b9dff"/><rect x="8" y="4" width="1" height="1" fill="#8b9dff"/><rect x="9" y="4" width="1" height="1" fill="#8b9dff"/><rect x="10" y="4" width="1" height="1" fill="#8b9dff"/><rect x="0" y="5" width="1" height="1" fill="#6b78e8"/><rect x="1" y="5" width="1" height="1" fill="#6b78e8"/><rect x="2" y="5" width="1" height="1" fill="#8b9dff"/><rect x="3" y="5" width="1" height="1" fill="#6b78e8"/><rect x="4" y="5" width="1" height="1" fill="#8b9dff"/><rect x="5" y="5" width="1" height="1" fill="#8b9dff"/><rect x="6" y="5" width="1" height="1" fill="#8b9dff"/><rect x="7" y="5" width="1" height="1" fill="#1b1e2e"/><rect x="8" y="5" width="1" height="1" fill="#8b9dff"/><rect x="9" y="5" width="1" height="1" fill="#8b9dff"/><rect x="10" y="5" width="1" height="1" fill="#8b9dff"/><rect x="2" y="6" width="1" height="1" fill="#8b9dff"/><rect x="3" y="6" width="1" height="1" fill="#6b78e8"/><rect x="4" y="6" width="1" height="1" fill="#6b78e8"/><rect x="5" y="6" width="1" height="1" fill="#8b9dff"/><rect x="6" y="6" width="1" height="1" fill="#8b9dff"/><rect x="7" y="6" width="1" height="1" fill="#e79ab0"/><rect x="8" y="6" width="1" height="1" fill="#8b9dff"/><rect x="9" y="6" width="1" height="1" fill="#8b9dff"/><rect x="10" y="6" width="1" height="1" fill="#f2c14e"/><rect x="2" y="7" width="1" height="1" fill="#8b9dff"/><rect x="3" y="7" width="1" height="1" fill="#8b9dff"/><rect x="4" y="7" width="1" height="1" fill="#6b78e8"/><rect x="5" y="7" width="1" height="1" fill="#f4f1ea"/><rect x="6" y="7" width="1" height="1" fill="#f4f1ea"/><rect x="7" y="7" width="1" height="1" fill="#f4f1ea"/><rect x="8" y="7" width="1" height="1" fill="#8b9dff"/><rect x="9" y="7" width="1" height="1" fill="#8b9dff"/><rect x="3" y="8" width="1" height="1" fill="#8b9dff"/><rect x="4" y="8" width="1" height="1" fill="#8b9dff"/><rect x="5" y="8" width="1" height="1" fill="#f4f1ea"/><rect x="6" y="8" width="1" height="1" fill="#f4f1ea"/><rect x="7" y="8" width="1" height="1" fill="#f4f1ea"/><rect x="8" y="8" width="1" height="1" fill="#8b9dff"/><rect x="5" y="10" width="1" height="1" fill="#b7a98f"/><rect x="7" y="10" width="1" height="1" fill="#b7a98f"/></g>
</svg>
